# Blender v2.80 (sub 75) OBJ File: 'tile1.blend'
# www.blender.org
o Cylinder.001
v -0.860000 -1.000000 0.000000
v -0.870657 1.000000 -0.053576
v -0.883594 1.000000 -0.077780
v -0.883594 -1.000000 -0.077780
v -0.901005 1.000000 -0.098995
v -0.922220 1.000000 -0.116406
v -0.922220 -1.000000 -0.116406
v -0.946424 1.000000 -0.129343
v -0.946424 -1.000000 -0.129343
v -0.972687 1.000000 -0.137310
v -0.972687 -1.000000 -0.137310
v -1.000000 1.000000 -0.140000
v -1.000000 -1.000000 -0.140000
v -1.027313 1.000000 -0.137310
v -1.027313 -1.000000 -0.137310
v -1.053576 1.000000 -0.129343
v -1.053576 -1.000000 -0.129343
v -1.077780 1.000000 -0.116406
v -1.077780 -1.000000 -0.116406
v -1.098995 1.000000 -0.098995
v -1.098995 -1.000000 -0.098995
v -1.116406 1.000000 -0.077780
v -1.116406 -1.000000 -0.077780
v -1.129343 1.000000 -0.053576
v -1.129343 -1.000000 -0.053576
v -1.137310 1.000000 -0.027313
v -1.137310 -1.000000 -0.027313
v -1.140000 1.000000 -0.000000
v -1.140000 -1.000000 0.000000
v -1.137310 1.000000 0.027313
v -1.137310 -1.000000 0.027313
v -1.129343 1.000000 0.053576
v -1.129343 -1.000000 0.053576
v -1.116406 1.000000 0.077780
v -1.116406 -1.000000 0.077780
v -1.098995 1.000000 0.098995
v -1.098995 -1.000000 0.098995
v -1.077780 1.000000 0.116406
v -1.077780 -1.000000 0.116406
v -1.053576 1.000000 0.129343
v -1.053576 -1.000000 0.129343
v -1.027313 1.000000 0.137310
v -1.027313 -1.000000 0.137310
v -1.000000 1.000000 0.140000
v -1.000000 -1.000000 0.140000
v -0.972687 1.000000 0.137310
v -0.972687 -1.000000 0.137310
v -0.946424 1.000000 0.129343
v -0.946424 -1.000000 0.129343
v -0.922220 1.000000 0.116406
v -0.922220 -1.000000 0.116406
v -0.883594 1.000000 0.077780
v -0.870657 1.000000 0.053575
v 1.000000 -1.000000 0.100000
v 1.000000 -1.000000 -0.100000
v 1.000000 1.000000 0.100000
v 1.000000 1.000000 -0.100000
v -0.860000 1.000000 -0.000000
v -0.862690 1.000000 -0.027313
v -0.862690 -1.000000 -0.027313
v -0.862690 1.000000 0.027312
v -0.862690 -1.000000 0.027313
v -0.901005 -1.000000 -0.098995
v -0.870657 -1.000000 -0.053576
v -0.870657 -1.000000 0.053576
v -0.883594 -1.000000 0.077780
v -0.901005 1.000000 0.098995
v -0.901005 -1.000000 0.098995
vn 0.6344 -0.0000 -0.7730
vn 0.4714 -0.0000 -0.8819
vn 0.2903 -0.0000 -0.9569
vn 0.0980 -0.0000 -0.9952
vn -0.0980 -0.0000 -0.9952
vn -0.2903 -0.0000 -0.9569
vn -0.4714 -0.0000 -0.8819
vn -0.6344 -0.0000 -0.7730
vn -0.7730 -0.0000 -0.6344
vn -0.8819 -0.0000 -0.4714
vn -0.9569 -0.0000 -0.2903
vn -0.9952 -0.0000 -0.0980
vn -0.9952 -0.0000 0.0980
vn -0.9569 0.0000 0.2903
vn -0.8819 0.0000 0.4714
vn -0.7730 0.0000 0.6344
vn -0.6344 0.0000 0.7730
vn -0.4714 0.0000 0.8819
vn -0.2903 0.0000 0.9569
vn -0.0980 0.0000 0.9952
vn 0.0980 0.0000 0.9952
vn 0.2903 0.0000 0.9569
vn 0.4714 0.0000 0.8819
vn 0.6344 0.0000 0.7730
vn 0.0000 -1.0000 0.0000
vn 1.0000 0.0000 0.0000
vn 0.0000 1.0000 0.0000
vn -0.0005 0.0000 1.0000
vn -0.0005 -0.0000 -1.0000
s off
f 63//1 6//1 5//1
f 7//2 8//2 6//2
f 9//3 10//3 8//3
f 11//4 12//4 10//4
f 13//5 14//5 12//5
f 15//6 16//6 14//6
f 17//7 18//7 16//7
f 19//8 20//8 18//8
f 21//9 22//9 20//9
f 23//10 24//10 22//10
f 25//11 26//11 24//11
f 27//12 28//12 26//12
f 29//13 30//13 28//13
f 31//14 32//14 30//14
f 33//15 34//15 32//15
f 35//16 36//16 34//16
f 37//17 38//17 36//17
f 39//18 40//18 38//18
f 41//19 42//19 40//19
f 43//20 44//20 42//20
f 45//21 46//21 44//21
f 47//22 48//22 46//22
f 49//23 50//23 48//23
f 51//24 67//24 50//24
f 62//25 43//25 27//25
f 54//25 62//25 1//25
f 57//26 54//26 55//26
f 58//27 61//27 56//27
f 59//27 14//27 30//27
f 68//28 56//28 67//28
f 5//29 55//29 63//29
f 63//1 7//1 6//1
f 7//2 9//2 8//2
f 9//3 11//3 10//3
f 11//4 13//4 12//4
f 13//5 15//5 14//5
f 15//6 17//6 16//6
f 17//7 19//7 18//7
f 19//8 21//8 20//8
f 21//9 23//9 22//9
f 23//10 25//10 24//10
f 25//11 27//11 26//11
f 27//12 29//12 28//12
f 29//13 31//13 30//13
f 31//14 33//14 32//14
f 33//15 35//15 34//15
f 35//16 37//16 36//16
f 37//17 39//17 38//17
f 39//18 41//18 40//18
f 41//19 43//19 42//19
f 43//20 45//20 44//20
f 45//21 47//21 46//21
f 47//22 49//22 48//22
f 49//23 51//23 50//23
f 51//24 68//24 67//24
f 11//25 9//25 4//25
f 9//25 7//25 4//25
f 7//25 63//25 4//25
f 4//25 64//25 60//25
f 60//25 1//25 62//25
f 62//25 65//25 66//25
f 66//25 68//25 51//25
f 51//25 49//25 47//25
f 47//25 45//25 43//25
f 43//25 41//25 39//25
f 39//25 37//25 35//25
f 35//25 33//25 31//25
f 31//25 29//25 27//25
f 27//25 25//25 23//25
f 23//25 21//25 27//25
f 21//25 19//25 27//25
f 19//25 17//25 11//25
f 17//25 15//25 11//25
f 15//25 13//25 11//25
f 4//25 60//25 11//25
f 60//25 62//25 11//25
f 62//25 66//25 51//25
f 51//25 47//25 62//25
f 47//25 43//25 62//25
f 43//25 39//25 35//25
f 35//25 31//25 43//25
f 31//25 27//25 43//25
f 27//25 19//25 11//25
f 11//25 62//25 27//25
f 63//25 55//25 4//25
f 55//25 54//25 1//25
f 4//25 55//25 64//25
f 54//25 68//25 66//25
f 54//25 66//25 65//25
f 64//25 55//25 60//25
f 60//25 55//25 1//25
f 54//25 65//25 62//25
f 57//26 56//26 54//26
f 56//27 57//27 58//27
f 57//27 5//27 3//27
f 57//27 3//27 2//27
f 52//27 67//27 56//27
f 53//27 52//27 56//27
f 57//27 2//27 59//27
f 57//27 59//27 58//27
f 61//27 53//27 56//27
f 59//27 2//27 3//27
f 3//27 5//27 59//27
f 5//27 6//27 59//27
f 6//27 8//27 10//27
f 10//27 12//27 14//27
f 14//27 16//27 22//27
f 16//27 18//27 22//27
f 18//27 20//27 22//27
f 22//27 24//27 26//27
f 26//27 28//27 30//27
f 30//27 32//27 38//27
f 32//27 34//27 38//27
f 34//27 36//27 38//27
f 38//27 40//27 42//27
f 42//27 44//27 46//27
f 46//27 48//27 50//27
f 50//27 67//27 46//27
f 67//27 52//27 46//27
f 52//27 53//27 61//27
f 61//27 58//27 59//27
f 6//27 10//27 59//27
f 10//27 14//27 59//27
f 22//27 26//27 14//27
f 26//27 30//27 14//27
f 38//27 42//27 46//27
f 52//27 61//27 46//27
f 61//27 59//27 46//27
f 30//27 38//27 59//27
f 38//27 46//27 59//27
f 68//28 54//28 56//28
f 5//29 57//29 55//29
