# Blender v2.80 (sub 75) OBJ File: 'Tile0.blend'
# www.blender.org
o Cube
v 1.000000 -1.000000 0.100000
v 1.000000 -1.000000 -0.100000
v -1.000000 -1.000000 0.100000
v -1.000000 -1.000000 -0.100000
v 1.000000 1.000000 0.100000
v 1.000000 1.000000 -0.100000
v -1.000000 1.000000 0.100000
v -1.000000 1.000000 -0.100000
v -0.850000 -0.850000 0.100000
v -0.850000 0.850000 0.100000
v 0.850000 -0.850000 0.100000
v 0.850000 0.850000 0.100000
v -0.850000 -0.850000 0.000000
v -0.850000 0.850000 0.000000
v 0.850000 -0.850000 0.000000
v 0.850000 0.850000 0.000000
vt 0.328479 0.671521
vt 0.029126 0.695793
vt 0.004854 0.671521
vt 0.338188 0.338188
vt 0.661812 0.661812
vt 0.338188 0.661812
vt 0.338188 0.328479
vt 0.661812 0.004854
vt 0.661812 0.328479
vt 0.671521 0.328479
vt 0.995145 0.004854
vt 0.995145 0.328479
vt 0.004854 0.328479
vt 0.328479 0.004854
vt 0.328479 0.328479
vt 0.004854 0.661812
vt 0.328479 0.338188
vt 0.328479 0.661812
vt 0.669094 0.337460
vt 0.830906 0.612540
vt 0.669094 0.612540
vt 0.328479 0.995146
vt 0.304207 0.695793
vt 0.029126 0.970874
vt 0.004854 0.995146
vt 0.304207 0.970874
vt 0.612540 0.945874
vt 0.337460 0.670793
vt 0.612540 0.670793
vt 0.835761 0.337460
vt 0.997573 0.612540
vt 0.835761 0.612540
vt 0.830906 0.895874
vt 0.669094 0.620793
vt 0.830906 0.620793
vt 0.835761 0.620793
vt 0.997573 0.895874
vt 0.835761 0.895874
vt 0.661812 0.338188
vt 0.338188 0.004854
vt 0.671521 0.004854
vt 0.004854 0.004854
vt 0.004854 0.338188
vt 0.830906 0.337460
vt 0.337460 0.945874
vt 0.997573 0.337460
vt 0.669094 0.895874
vt 0.997573 0.620793
vn 0.0000 0.0000 1.0000
vn -1.0000 0.0000 0.0000
vn 0.0000 1.0000 0.0000
vn 0.0000 0.0000 -1.0000
vn 0.0000 -1.0000 0.0000
vn 1.0000 0.0000 0.0000
s off
f 1/1/1 9/2/1 3/3/1
f 3/4/2 8/5/2 4/6/2
f 7/7/3 6/8/3 8/9/3
f 2/10/4 8/11/4 6/12/4
f 1/13/5 4/14/5 2/15/5
f 5/16/6 2/17/6 6/18/6
f 10/19/5 16/20/5 12/21/5
f 5/22/1 11/23/1 1/1/1
f 3/3/1 10/24/1 7/25/1
f 7/25/1 12/26/1 5/22/1
f 16/27/1 13/28/1 15/29/1
f 9/30/6 14/31/6 10/32/6
f 12/33/2 15/34/2 11/35/2
f 11/36/3 13/37/3 9/38/3
f 1/1/1 11/23/1 9/2/1
f 3/4/2 7/39/2 8/5/2
f 7/7/3 5/40/3 6/8/3
f 2/10/4 4/41/4 8/11/4
f 1/13/5 3/42/5 4/14/5
f 5/16/6 1/43/6 2/17/6
f 10/19/5 14/44/5 16/20/5
f 5/22/1 12/26/1 11/23/1
f 3/3/1 9/2/1 10/24/1
f 7/25/1 10/24/1 12/26/1
f 16/27/1 14/45/1 13/28/1
f 9/30/6 13/46/6 14/31/6
f 12/33/2 16/47/2 15/34/2
f 11/36/3 15/48/3 13/37/3
