# Blender v2.80 (sub 75) OBJ File: 'Tile0.blend'
# www.blender.org
o Cylinder.001
v -0.901005 1.000000 0.098995
v -0.922220 -1.000000 0.116406
v -0.901005 -1.000000 0.098995
v -0.922220 1.000000 0.116406
v -0.946424 -1.000000 0.129343
v -0.946424 1.000000 0.129343
v -0.972687 -1.000000 0.137310
v -0.972687 1.000000 0.137310
v -1.000000 -1.000000 0.140000
v -1.000000 1.000000 0.140000
v -1.027313 -1.000000 0.137310
v -1.027313 1.000000 0.137310
v -1.053576 -1.000000 0.129343
v -1.053576 1.000000 0.129343
v -1.077780 -1.000000 0.116406
v -1.077780 1.000000 0.116406
v -1.098995 -1.000000 0.098995
v -1.098995 1.000000 0.098995
v -1.116406 -1.000000 0.077780
v -1.116406 1.000000 0.077780
v -1.129343 -1.000000 0.053576
v -1.129343 1.000000 0.053576
v -1.137310 -1.000000 0.027313
v -1.137310 1.000000 0.027313
v -1.140000 -1.000000 -0.000000
v -1.140000 1.000000 0.000000
v -1.137310 -1.000000 -0.027313
v -1.137310 1.000000 -0.027313
v -1.129343 -1.000000 -0.053576
v -1.129343 1.000000 -0.053576
v -1.116406 -1.000000 -0.077780
v -1.116406 1.000000 -0.077780
v -1.098995 -1.000000 -0.098995
v -1.098995 1.000000 -0.098995
v -1.077780 -1.000000 -0.116406
v -1.077780 1.000000 -0.116406
v -1.053576 -1.000000 -0.129343
v -1.053576 1.000000 -0.129343
v -1.027313 -1.000000 -0.137310
v -1.027313 1.000000 -0.137310
v -1.000000 -1.000000 -0.140000
v -1.000000 1.000000 -0.140000
v -0.972687 -1.000000 -0.137310
v -0.972687 1.000000 -0.137310
v -0.946424 -1.000000 -0.129343
v -0.946424 1.000000 -0.129343
v -0.922220 -1.000000 -0.116406
v -0.922220 1.000000 -0.116406
v -0.901005 -1.000000 -0.098995
v -0.862690 1.000000 -0.027313
v 1.000000 1.000000 -0.100000
v -0.860000 1.000000 0.000000
v 1.000000 -1.000000 0.100000
v 1.000000 1.000000 0.100000
v -0.860000 -1.000000 -0.000000
v -0.862690 -1.000000 -0.027312
v 1.000000 -1.000000 -0.100000
v -0.862690 -1.000000 0.027313
v -0.901005 1.000000 -0.098995
v -0.883594 1.000000 0.077780
v -0.870657 1.000000 0.053576
v -0.862690 1.000000 0.027313
v -0.870657 1.000000 -0.053576
v -0.883594 1.000000 -0.077780
v -0.883594 -1.000000 0.077780
v -0.870657 -1.000000 0.053576
v -0.883594 -1.000000 -0.077780
v -0.870657 -1.000000 -0.053575
vt 0.992718 0.442606
vt 0.507282 0.447464
vt 0.507282 0.442606
vt 0.992718 0.447464
vt 0.507282 0.453007
vt 0.992718 0.453007
vt 0.507282 0.459022
vt 0.992718 0.459022
vt 0.507282 0.465277
vt 0.992718 0.465278
vt 0.507282 0.471533
vt 0.992718 0.471533
vt 0.507282 0.477549
vt 0.992718 0.477549
vt 0.507282 0.483093
vt 0.992718 0.483093
vt 0.507282 0.487952
vt 0.238542 0.960102
vt 0.233003 0.502034
vt 0.238542 0.502034
vt 0.233003 0.960102
vt 0.226849 0.502034
vt 0.226849 0.960102
vt 0.220316 0.502034
vt 0.220316 0.960102
vt 0.213654 0.502034
vt 0.213654 0.960102
vt 0.207121 0.502034
vt 0.207121 0.960102
vt 0.200966 0.502034
vt 0.200967 0.960102
vt 0.195428 0.502034
vt 0.195428 0.960102
vt 0.190718 0.502034
vt 0.007282 0.487952
vt 0.492718 0.483093
vt 0.492718 0.487952
vt 0.007282 0.483093
vt 0.492718 0.477550
vt 0.007282 0.477550
vt 0.492718 0.471535
vt 0.007282 0.471535
vt 0.492718 0.465279
vt 0.007282 0.465279
vt 0.492718 0.459023
vt 0.007282 0.459023
vt 0.492718 0.453008
vt 0.007282 0.453008
vt 0.492718 0.447465
vt 0.007282 0.447465
vt 0.492718 0.442606
vt 0.028371 0.566029
vt 0.001672 0.528325
vt 0.041629 0.503132
vt 0.010728 0.992648
vt 0.035000 0.566645
vt 0.189272 0.960102
vt 0.140728 0.502034
vt 0.189272 0.502034
vt 0.105000 0.566645
vt 0.111629 0.566029
vt 0.129272 0.992648
vt 0.098371 0.566029
vt 0.071672 0.528324
vt 0.111629 0.503131
vt 0.007282 0.442606
vt 0.492718 0.007211
vt 0.992718 0.007211
vt 0.992718 0.487952
vt 0.190718 0.960102
vt 0.068328 0.540836
vt 0.066394 0.546851
vt 0.053879 0.561241
vt 0.063254 0.552394
vt 0.059028 0.557253
vt 0.048004 0.564204
vt 0.041629 0.566029
vt 0.021996 0.564204
vt 0.016121 0.561241
vt 0.010972 0.557253
vt 0.006746 0.552394
vt 0.003606 0.546851
vt 0.001672 0.540836
vt 0.001019 0.534580
vt 0.003606 0.522309
vt 0.006746 0.516766
vt 0.010972 0.511907
vt 0.016121 0.507919
vt 0.021996 0.504956
vt 0.028371 0.503132
vt 0.035000 0.502515
vt 0.048004 0.504956
vt 0.053879 0.507919
vt 0.059028 0.511907
vt 0.063254 0.516766
vt 0.066394 0.522309
vt 0.068328 0.528325
vt 0.068981 0.534580
vt 0.059272 0.992648
vt 0.140728 0.960102
vt 0.080728 0.992648
vt 0.080972 0.557253
vt 0.086121 0.561241
vt 0.091996 0.564204
vt 0.123879 0.561241
vt 0.129028 0.557253
vt 0.118004 0.564204
vt 0.076746 0.552394
vt 0.073606 0.546851
vt 0.071672 0.540836
vt 0.071019 0.534580
vt 0.073606 0.522309
vt 0.086121 0.507919
vt 0.076746 0.516766
vt 0.080972 0.511907
vt 0.091996 0.504956
vt 0.098371 0.503131
vt 0.105000 0.502515
vt 0.118004 0.504956
vt 0.133254 0.516766
vt 0.123879 0.507919
vt 0.129028 0.511907
vt 0.136394 0.522309
vt 0.138328 0.528325
vt 0.138981 0.534580
vt 0.138328 0.540836
vt 0.136394 0.546851
vt 0.133254 0.552394
vt 0.007282 0.007211
vt 0.507282 0.007211
vn 0.6344 -0.0000 0.7730
vn 0.4714 -0.0000 0.8819
vn 0.2903 -0.0000 0.9569
vn 0.0980 -0.0000 0.9952
vn -0.0980 -0.0000 0.9952
vn -0.2903 -0.0000 0.9569
vn -0.4714 -0.0000 0.8819
vn -0.6344 -0.0000 0.7730
vn -0.7730 -0.0000 0.6344
vn -0.8819 -0.0000 0.4714
vn -0.9569 -0.0000 0.2903
vn -0.9952 0.0000 0.0980
vn -0.9952 0.0000 -0.0980
vn -0.9569 0.0000 -0.2903
vn -0.8819 0.0000 -0.4714
vn -0.7730 0.0000 -0.6344
vn -0.6344 0.0000 -0.7730
vn -0.4714 0.0000 -0.8819
vn -0.2903 0.0000 -0.9569
vn -0.0980 0.0000 -0.9952
vn 0.0980 0.0000 -0.9952
vn 0.2903 0.0000 -0.9569
vn 0.4714 0.0000 -0.8819
vn 0.6344 0.0000 -0.7730
vn -0.0000 1.0000 -0.0000
vn 1.0000 0.0000 0.0000
vn 0.0000 -1.0000 0.0000
vn -0.0005 0.0000 -1.0000
vn -0.0005 -0.0000 1.0000
s 1
f 1/1/1 2/2/1 3/3/1
f 4/4/2 5/5/2 2/2/2
f 6/6/3 7/7/3 5/5/3
f 8/8/4 9/9/4 7/7/4
f 10/10/5 11/11/5 9/9/5
f 12/12/6 13/13/6 11/11/6
f 14/14/7 15/15/7 13/13/7
f 16/16/8 17/17/8 15/15/8
f 18/18/9 19/19/9 17/20/9
f 20/21/10 21/22/10 19/19/10
f 22/23/11 23/24/11 21/22/11
f 24/25/12 25/26/12 23/24/12
f 26/27/13 27/28/13 25/26/13
f 28/29/14 29/30/14 27/28/14
f 30/31/15 31/32/15 29/30/15
f 32/33/16 33/34/16 31/32/16
f 34/35/17 35/36/17 33/37/17
f 36/38/18 37/39/18 35/36/18
f 38/40/19 39/41/19 37/39/19
f 40/42/20 41/43/20 39/41/20
f 42/44/21 43/45/21 41/43/21
f 44/46/22 45/47/22 43/45/22
f 46/48/23 47/49/23 45/47/23
f 48/50/24 49/51/24 47/49/24
f 50/52/25 40/53/25 24/54/25
f 51/55/25 50/52/25 52/56/25
f 53/57/26 51/58/26 54/59/26
f 55/60/27 56/61/27 57/62/27
f 58/63/27 11/64/27 27/65/27
f 59/66/28 57/67/28 49/51/28
f 3/3/29 54/68/29 1/1/29
f 1/1/1 4/4/1 2/2/1
f 4/4/2 6/6/2 5/5/2
f 6/6/3 8/8/3 7/7/3
f 8/8/4 10/10/4 9/9/4
f 10/10/5 12/12/5 11/11/5
f 12/12/6 14/14/6 13/13/6
f 14/14/7 16/16/7 15/15/7
f 16/16/8 18/69/8 17/17/8
f 18/18/9 20/21/9 19/19/9
f 20/21/10 22/23/10 21/22/10
f 22/23/11 24/25/11 23/24/11
f 24/25/12 26/27/12 25/26/12
f 26/27/13 28/29/13 27/28/13
f 28/29/14 30/31/14 29/30/14
f 30/31/15 32/33/15 31/32/15
f 32/33/16 34/70/16 33/34/16
f 34/35/17 36/38/17 35/36/17
f 36/38/18 38/40/18 37/39/18
f 38/40/19 40/42/19 39/41/19
f 40/42/20 42/44/20 41/43/20
f 42/44/21 44/46/21 43/45/21
f 44/46/22 46/48/22 45/47/22
f 46/48/23 48/50/23 47/49/23
f 48/50/24 59/66/24 49/51/24
f 8/71/25 6/72/25 60/73/25
f 6/72/25 4/74/25 60/73/25
f 4/74/25 1/75/25 60/73/25
f 60/73/25 61/76/25 62/77/25
f 62/77/25 52/56/25 50/52/25
f 50/52/25 63/78/25 64/79/25
f 64/79/25 59/80/25 48/81/25
f 48/81/25 46/82/25 44/83/25
f 44/83/25 42/84/25 40/53/25
f 40/53/25 38/85/25 36/86/25
f 36/86/25 34/87/25 32/88/25
f 32/88/25 30/89/25 28/90/25
f 28/90/25 26/91/25 24/54/25
f 24/54/25 22/92/25 20/93/25
f 20/93/25 18/94/25 24/54/25
f 18/94/25 16/95/25 24/54/25
f 16/95/25 14/96/25 8/71/25
f 14/96/25 12/97/25 8/71/25
f 12/97/25 10/98/25 8/71/25
f 60/73/25 62/77/25 8/71/25
f 62/77/25 50/52/25 8/71/25
f 50/52/25 64/79/25 48/81/25
f 48/81/25 44/83/25 50/52/25
f 44/83/25 40/53/25 50/52/25
f 40/53/25 36/86/25 32/88/25
f 32/88/25 28/90/25 40/53/25
f 28/90/25 24/54/25 40/53/25
f 24/54/25 16/95/25 8/71/25
f 8/71/25 50/52/25 24/54/25
f 1/75/25 54/99/25 60/73/25
f 54/99/25 51/55/25 52/56/25
f 60/73/25 54/99/25 61/76/25
f 51/55/25 59/80/25 64/79/25
f 51/55/25 64/79/25 63/78/25
f 61/76/25 54/99/25 62/77/25
f 62/77/25 54/99/25 52/56/25
f 51/55/25 63/78/25 50/52/25
f 53/57/26 57/100/26 51/58/26
f 57/62/27 53/101/27 55/60/27
f 53/101/27 3/102/27 65/103/27
f 53/101/27 65/103/27 66/104/27
f 67/105/27 49/106/27 57/62/27
f 68/107/27 67/105/27 57/62/27
f 53/101/27 66/104/27 58/63/27
f 53/101/27 58/63/27 55/60/27
f 56/61/27 68/107/27 57/62/27
f 58/63/27 66/104/27 65/103/27
f 65/103/27 3/102/27 58/63/27
f 3/102/27 2/108/27 58/63/27
f 2/108/27 5/109/27 7/110/27
f 7/110/27 9/111/27 11/64/27
f 11/64/27 13/112/27 19/113/27
f 13/112/27 15/114/27 19/113/27
f 15/114/27 17/115/27 19/113/27
f 19/113/27 21/116/27 23/117/27
f 23/117/27 25/118/27 27/65/27
f 27/65/27 29/119/27 35/120/27
f 29/119/27 31/121/27 35/120/27
f 31/121/27 33/122/27 35/120/27
f 35/120/27 37/123/27 39/124/27
f 39/124/27 41/125/27 43/126/27
f 43/126/27 45/127/27 47/128/27
f 47/128/27 49/106/27 43/126/27
f 49/106/27 67/105/27 43/126/27
f 67/105/27 68/107/27 56/61/27
f 56/61/27 55/60/27 58/63/27
f 2/108/27 7/110/27 58/63/27
f 7/110/27 11/64/27 58/63/27
f 19/113/27 23/117/27 11/64/27
f 23/117/27 27/65/27 11/64/27
f 35/120/27 39/124/27 43/126/27
f 67/105/27 56/61/27 43/126/27
f 56/61/27 58/63/27 43/126/27
f 27/65/27 35/120/27 58/63/27
f 35/120/27 43/126/27 58/63/27
f 59/66/28 51/129/28 57/67/28
f 3/3/29 53/130/29 54/68/29
